        <svg
          width="52"
          height="52"
          viewBox="0 0 52 52"
          fill="none"
          xmlns="http://www.w3.org/2000/svg"
        >
          <g filter="url(#filter0_d_102_214)">
            <rect
              x="4"
              width="44"
              height="44"
              rx="4"
              fill="white"
              shapeRendering="crispEdges"
            />
            <path
              d="M26 30C23.7667 30 21.875 29.225 20.325 27.675C18.775 26.125 18 24.2333 18 22C18 19.7667 18.775 17.875 20.325 16.325C21.875 14.775 23.7667 14 26 14C27.15 14 28.25 14.2377 29.3 14.713C30.35 15.1877 31.25 15.8667 32 16.75V14H34V21H27V19H31.2C30.6667 18.0667 29.9377 17.3333 29.013 16.8C28.0877 16.2667 27.0833 16 26 16C24.3333 16 22.9167 16.5833 21.75 17.75C20.5833 18.9167 20 20.3333 20 22C20 23.6667 20.5833 25.0833 21.75 26.25C22.9167 27.4167 24.3333 28 26 28C27.2833 28 28.4417 27.6333 29.475 26.9C30.5083 26.1667 31.2333 25.2 31.65 24H33.75C33.2833 25.7667 32.3333 27.2083 30.9 28.325C29.4667 29.4417 27.8333 30 26 30Z"
              fill="#272424"
            />
          </g>
          <defs>
            <filter
              id="filter0_d_102_214"
              x="0"
              y="0"
              width="52"
              height="52"
              filterUnits="userSpaceOnUse"
              colorInterpolationFilters="sRGB"
            >
              <feFlood floodOpacity="0" result="BackgroundImageFix" />
              <feColorMatrix
                in="SourceAlpha"
                type="matrix"
                values="0 0 0 0 0 0 0 0 0 0 0 0 0 0 0 0 0 0 127 0"
                result="hardAlpha"
              />
              <feOffset dy="4" />
              <feGaussianBlur stdDeviation="2" />
              <feComposite in2="hardAlpha" operator="out" />
              <feColorMatrix
                type="matrix"
                values="0 0 0 0 0 0 0 0 0 0 0 0 0 0 0 0 0 0 0.25 0"
              />
              <feBlend
                mode="normal"
                in2="BackgroundImageFix"
                result="effect1_dropShadow_102_214"
              />
              <feBlend
                mode="normal"
                in="SourceGraphic"
                in2="effect1_dropShadow_102_214"
                result="shape"
              />
            </filter>
          </defs>
        </svg>